HIERARCHY
ROOT root
{
	OFFSET	0	13.1	24.9
	CHANNELS 6  Xposition Yposition Zposition Xrotation Yrotation Zrotation
	JOINT spine_1
	{
		OFFSET	0	9.99999	0
		CHANNELS 3  Xrotation Yrotation Zrotation
		JOINT spine_2
		{
			OFFSET	0	112	-10
			CHANNELS 3  Xrotation Yrotation Zrotation
			JOINT spine_3
			{
				OFFSET	0	206.5	19.3
				CHANNELS 3  Xrotation Yrotation Zrotation
				JOINT spine_4
				{
					OFFSET	0	110.4	14.6
					CHANNELS 3  Xrotation Yrotation Zrotation
					JOINT neck_1
					{
						OFFSET	0	71.8	-50.3
						CHANNELS 3  Xrotation Yrotation Zrotation
						JOINT neck_2
						{
							OFFSET	0	86.2	-25.8
							CHANNELS 3  Xrotation Yrotation Zrotation
							JOINT head_ee
							{
								OFFSET	0	179.8	-8.7
								CHANNELS 3  Xrotation Yrotation Zrotation
								End Site
								{
									OFFSET	1	0	0
								}
							}
						}
					}
					JOINT left_clavicle
					{
						OFFSET	-43.2	22.4	-70.8
						CHANNELS 3  Xrotation Yrotation Zrotation
						JOINT left_shoulder
						{
							OFFSET	-93.9	-5.79999	48.7
							CHANNELS 3  Xrotation Yrotation Zrotation
							JOINT left_elbow
							{
								OFFSET	-291.4	-30.8	15.2
								CHANNELS 3  Xrotation Yrotation Zrotation
								JOINT left_lowarm_twist
								{
									OFFSET	-110.7	-3.89999	13.6
									CHANNELS 3  Xrotation Yrotation Zrotation
									JOINT left_hand
									{
										OFFSET	-110.7	-3.89999	13.6
										CHANNELS 3  Xrotation Yrotation Zrotation
										JOINT left_ee
										{
											OFFSET	-80.8	-5.10001	12.1
											CHANNELS 3  Xrotation Yrotation Zrotation
											End Site
											{
												OFFSET	1	0	0
											}
										}
									}
								}
							}
						}
					}
					JOINT right_clavicle
					{
						OFFSET	43.2	22.4	-70.8
						CHANNELS 3  Xrotation Yrotation Zrotation
						JOINT right_shoulder
						{
							OFFSET	93.9	-5.79999	48.7
							CHANNELS 3  Xrotation Yrotation Zrotation
							JOINT right_elbow
							{
								OFFSET	291.4	-30.8	15.2
								CHANNELS 3  Xrotation Yrotation Zrotation
								JOINT right_lowarm_twist
								{
									OFFSET	110.7	-3.89999	13.6
									CHANNELS 3  Xrotation Yrotation Zrotation
									JOINT right_hand
									{
										OFFSET	110.7	-3.89999	13.6
										CHANNELS 3  Xrotation Yrotation Zrotation
										JOINT right_ee
										{
											OFFSET	80.8	-5.10001	12.1
											CHANNELS 3  Xrotation Yrotation Zrotation
											End Site
											{
												OFFSET	1	0	0
											}
										}
									}
								}
							}
						}
					}
				}
			}
		}
	}
	JOINT left_hip
	{
		OFFSET	-82.8	-127.5	0.300001
		CHANNELS 3  Xrotation Yrotation Zrotation
		JOINT left_knee
		{
			OFFSET	-28.2	-396.7	2.2
			CHANNELS 3  Xrotation Yrotation Zrotation
			JOINT left_ankle
			{
				OFFSET	-11.7	-411.3	35.4
				CHANNELS 3  Xrotation Yrotation Zrotation
				JOINT left_toes
				{
					OFFSET	0	-60	-88.6
					CHANNELS 3  Xrotation Yrotation Zrotation
					JOINT left_foot_ee
					{
						OFFSET	-22.5	-16.5	-42.2
						CHANNELS 3  Xrotation Yrotation Zrotation
						End Site
						{
							OFFSET	1	0	0
						}
					}
				}
			}
		}
	}
	JOINT right_hip
	{
		OFFSET	82.8	-127.5	0.300001
		CHANNELS 3  Xrotation Yrotation Zrotation
		JOINT right_knee
		{
			OFFSET	28.2	-396.7	2.2
			CHANNELS 3  Xrotation Yrotation Zrotation
			JOINT right_ankle
			{
				OFFSET	11.7	-411.3	35.4
				CHANNELS 3  Xrotation Yrotation Zrotation
				JOINT right_toes
				{
					OFFSET	0	-60	-88.6
					CHANNELS 3  Xrotation Yrotation Zrotation
					JOINT right_foot_ee
					{
						OFFSET	22.5	-16.5	-42.2
						CHANNELS 3  Xrotation Yrotation Zrotation
						End Site
						{
							OFFSET	1	0	0
						}
					}
				}
			}
		}
	}
}
MOTION
Frames: 5
Frame Time: 0.02
3532.72389099 715.373 -1528.09827797 -4.95093577234 53.4112448575 -4.48288848519 3.54831 1.23371 4.69818 3.5601 0.932602 4.76695 3.63242 0.219388 4.85216 3.60093 0.98207 4.75702 -11.6433 19.1261 -3.72309 -12.5135 38.625 2.18203 -0.0 0.0 -0.0 -8.89451 16.2145 -12.4182 -26.1272 -22.1877 69.7733 1.42183 -35.1562 0.450454 0.39033 0.0135892 -0.0479984 -1.38928 19.9125 -0.240191 -0.0 0.0 -0.0 13.6677 26.8947 -27.1149 -1.48554 54.7249 -77.0964 0.456133 12.7327 -0.0508924 43.6399 0.552004 5.41455 -1.23018 -2.89562 6.94417 0.0 0.0 0.0 18.7305 54.7822 -18.9034 -37.0702 -0.290973 5.58375 9.12669 -18.8478 -1.45737 29.3625 -0.0 -0.0 -0.0 0.0 -0.0 -9.94009 34.0539 8.41043 0.470221 0.019648 0.0694835 40.5955 -7.73296 4.91495 -11.0809 0.0 0.0 0.0 0.0 0.0 
3534.90246498 715.373 -1529.73093659 -4.70052088693 51.1160490492 -4.79947070626 3.54831 1.23371 4.69818 3.5601 0.932602 4.76695 3.63242 0.219388 4.85216 3.60093 0.98207 4.75702 -11.6433 19.1261 -3.72309 -12.5135 38.625 2.18203 -0.0 0.0 -0.0 -8.89451 16.2145 -12.4182 -26.1272 -22.1877 69.7733 1.42183 -35.1562 0.450454 0.39033 0.0135892 -0.0479984 -1.38928 19.9125 -0.240191 -0.0 0.0 -0.0 13.6677 26.8947 -27.1149 -1.48554 54.7249 -77.0964 0.456133 12.7327 -0.0508924 43.6399 0.552004 5.41455 -1.23018 -2.89562 6.94417 0.0 0.0 0.0 18.7305 54.7822 -18.9034 -37.0702 -0.290973 5.58375 9.12669 -18.8478 -1.45737 29.3625 -0.0 -0.0 -0.0 0.0 -0.0 -9.94009 34.0539 8.41043 0.470221 0.019648 0.0694835 40.5955 -7.73296 4.91495 -11.0809 0.0 0.0 0.0 0.0 0.0 
3532.04302332 718.444 -1538.80057318 -6.58301994922 55.058818778 -1.59230951763 3.3407 1.33279 4.33852 3.35055 1.0543 4.41433 3.42809 0.375979 4.52268 3.40119 1.08484 4.40694 -11.6546 19.5946 -2.87938 -12.5701 38.981 3.15789 -0.0 0.0 -0.0 -11.5683 24.4589 -13.2006 -24.8924 -15.1302 73.5906 1.75661 -41.0252 0.657252 -1.60983 -0.059496 0.19696 -2.7306 18.5162 -8.98228 -0.0 0.0 -0.0 14.2931 26.4244 -28.6371 3.83368 57.1186 -75.5736 0.4278 11.9653 -0.0448327 38.3016 0.263884 4.79575 -0.0457663 0.770631 0.631318 0.0 0.0 0.0 18.5307 38.6367 -14.3188 -38.8352 -0.394332 5.83454 7.64859 -10.1674 -1.15336 25.1832 -0.0 -0.0 -0.0 0.0 -0.0 -8.73628 29.6959 5.88127 4.33556 0.202663 0.634173 38.7836 -5.47076 4.75103 -27.3494 0.0 0.0 0.0 0.0 0.0 
3521.7917659 718.174 -1538.08986013 -6.18698213984 54.9614846119 -1.79546369397 3.26385 1.69497 4.2629 3.27284 1.42054 4.36186 3.37801 0.74314 4.52646 3.35235 1.44801 4.35284 -14.4771 20.3434 1.49026 -15.9017 38.0004 8.68978 -0.0 0.0 -0.0 -11.9887 25.7255 -13.193 -24.7487 -13.6879 74.3264 1.75894 -41.0629 0.658786 -1.5062 -0.0554991 0.184331 -2.61937 17.5277 -8.82407 -0.0 0.0 -0.0 14.3447 26.4882 -28.7502 5.32705 57.5018 -75.1701 0.453791 12.6694 -0.0503773 37.8111 0.240337 4.73762 -0.160872 1.22722 1.59565 0.0 0.0 0.0 20.1571 30.0152 -13.5249 -40.5715 -0.503526 6.07809 7.48297 -8.75891 -1.12034 24.7549 -0.0 -0.0 -0.0 0.0 -0.0 -8.82116 28.9376 5.38685 4.71144 0.222489 0.688415 39.5008 -4.8585 4.81435 -29.1471 0.0 0.0 0.0 0.0 0.0 
3523.3164334 725.368 -1540.75529501 -7.5963688777 57.5716007984 -0.36476377856 3.14058 1.26335 3.92504 3.14858 1.01123 3.99732 3.21668 0.381011 4.10543 3.19463 1.02409 3.99405 -16.9227 21.0835 4.95197 -18.7059 37.7682 13.1579 -0.0 0.0 -0.0 -10.5296 24.6956 -11.5608 -25.1497 -10.3616 75.3231 1.5347 -37.2411 0.517123 -0.223623 -0.00793291 0.0274571 -2.40786 15.259 -8.68676 -0.0 0.0 -0.0 14.5729 26.3696 -29.3029 8.37841 58.4607 -75.1332 0.452441 12.6329 -0.0500817 36.6867 0.188238 4.60362 -0.149225 3.41585 2.44953 0.0 0.0 0.0 22.6635 19.9999 -11.8976 -40.0597 -0.470567 6.00663 8.93461 -10.0175 -1.33988 23.373 -0.0 -0.0 -0.0 0.0 -0.0 -8.47583 28.0428 4.98217 6.34483 0.31277 0.922598 38.8496 -4.63371 4.75698 -31.5071 0.0 0.0 0.0 0.0 0.0 
